  <svg xmlns="http://www.w3.org/2000/svg">
    <symbol viewBox="0 0 24 15" id="vk-icon">
      <path fill-rule="evenodd" clip-rule="evenodd"
        d="M23.45 1.448C23.616 0.902 23.45 0.5 22.655 0.5H20.03C19.362 0.5 19.054 0.847 18.887 1.23C18.887 1.23 17.552 4.426 15.661 6.502C15.049 7.104 14.771 7.295 14.437 7.295C14.27 7.295 14.019 7.104 14.019 6.557V1.448C14.019 0.792 13.835 0.5 13.279 0.5H9.151C8.734 0.5 8.483 0.804 8.483 1.093C8.483 1.714 9.429 1.858 9.526 3.606V7.404C9.526 8.237 9.373 8.388 9.039 8.388C8.149 8.388 5.984 5.177 4.699 1.503C4.45 0.788 4.198 0.5 3.527 0.5H0.9C0.15 0.5 0 0.847 0 1.23C0 1.912 0.89 5.3 4.145 9.781C6.315 12.841 9.37 14.5 12.153 14.5C13.822 14.5 14.028 14.132 14.028 13.497V11.184C14.028 10.447 14.186 10.3 14.715 10.3C15.105 10.3 15.772 10.492 17.33 11.967C19.11 13.716 19.403 14.5 20.405 14.5H23.03C23.78 14.5 24.156 14.132 23.94 13.404C23.702 12.68 22.852 11.629 21.725 10.382C21.113 9.672 20.195 8.907 19.916 8.524C19.527 8.033 19.638 7.814 19.916 7.377C19.916 7.377 23.116 2.951 23.449 1.448H23.45Z" />
    </symbol>
    <symbol viewBox="0 0 18 16" id="telegram-icon">
      <path
        d="M16.7855 0.59926L0.840977 6.74776C-0.247172 7.18481 -0.240877 7.79184 0.641333 8.06253L4.73493 9.33953L14.2063 3.3637C14.6542 3.09121 15.0634 3.2378 14.727 3.53636L7.05332 10.4619H7.05152L7.05332 10.4628L6.77094 14.6823C7.18462 14.6823 7.36718 14.4925 7.5992 14.2686L9.58754 12.3351L13.7234 15.39C14.486 15.81 15.0337 15.5941 15.2234 14.6841L17.9384 1.88885C18.2163 0.774623 17.513 0.270117 16.7855 0.59926Z" />
    </symbol>
    <symbol viewBox="0 0 22 17" id="youtube-icon">
      <path
        d="M18.607 0H3.17413C1.31343 0 0 1.59375 0 3.4V13.4937C0 15.4062 1.31343 17 3.17413 17H18.8259C20.4677 17 22 15.4062 22 13.6V3.4C21.7811 1.59375 20.4677 0 18.607 0ZM7.66169 12.5375V4.4625L14.995 8.5L7.66169 12.5375Z" />
    </symbol>
    <symbol viewBox="0 0 27 35" id="htmlacademy-icon">
      <path
        d="M13.6 0h-.1L0 1.4v24.7l13.5 8 13.4-8V1.4L13.6 0ZM25 12.1 13.5 5.3v-.1h-.1l-.1-.1v.1L1.9 12.1v-9l11.5-1.2L25 3.1v9ZM13.4 6.8l11.5 6.7-4.5 2.6-7.1-4.2v1.4l5.9 3.5-.9.5-5-3v1.4l3.8 2.3-.8.5-3-1.8v1.4l1.9 1.1-1.8 1.1L2 13.6l11.4-6.8ZM1.9 15.1l11.4 6.8v1l-7.9-4.7v1.4l8 4.8v1.1l-8-4.7v1.4l8 4.8 8.1-4.9v-5.2l3.4-2v10l-11.5 6.9L1.9 25v-9.9Z" />
    </symbol>
  </svg>
